{
    "asset" : {
        "generator" : "Khronos glTF Blender I/O v1.6.16",
        "version" : "2.0"
    },
    "scene" : 0,
    "scenes" : [
        {
            "name" : "Scene",
            "nodes" : [
                0
            ]
        }
    ],
    "nodes" : [
        {
            "mesh" : 0,
            "name" : "Pillow_high poly",
            "scale" : [
                1.0574158430099487,
                1.0959986448287964,
                1.1059883832931519
            ],
            "translation" : [
                -0.002064136788249016,
                0.20391996204853058,
                0.0030878318939357996
            ]
        }
    ],
    "materials" : [
        {
            "doubleSided" : true,
            "name" : "Front",
            "pbrMetallicRoughness" : {
                "baseColorTexture" : {
                    "index" : 0
                },
                "metallicFactor" : 0
            }
        },
        {
            "doubleSided" : true,
            "name" : "Back",
            "pbrMetallicRoughness" : {
                "baseColorTexture" : {
                    "index" : 1
                },
                "metallicFactor" : 0
            }
        }
    ],
    "meshes" : [
        {
            "name" : "Cube.032",
            "primitives" : [
                {
                    "attributes" : {
                        "POSITION" : 0,
                        "NORMAL" : 1,
                        "TEXCOORD_0" : 2
                    },
                    "indices" : 3,
                    "material" : 0
                },
                {
                    "attributes" : {
                        "POSITION" : 4,
                        "NORMAL" : 5,
                        "TEXCOORD_0" : 6
                    },
                    "indices" : 7,
                    "material" : 1
                }
            ]
        }
    ],
    "textures" : [
        {
            "sampler" : 0,
            "source" : 0
        },
        {
            "sampler" : 0,
            "source" : 1
        }
    ],
    "images" : [
        {
            "bufferView" : 4,
            "mimeType" : "image/png",
            "name" : "front"
        },
        {
            "bufferView" : 9,
            "mimeType" : "image/png",
            "name" : "back"
        }
    ],
    "accessors" : [
        {
            "bufferView" : 0,
            "componentType" : 5126,
            "count" : 13105,
            "max" : [
                0.1876031905412674,
                0.1883692443370819,
                0.08945295959711075
            ],
            "min" : [
                -0.1906774342060089,
                -0.1764286607503891,
                -0.005753406789153814
            ],
            "type" : "VEC3"
        },
        {
            "bufferView" : 1,
            "componentType" : 5126,
            "count" : 13105,
            "type" : "VEC3"
        },
        {
            "bufferView" : 2,
            "componentType" : 5126,
            "count" : 13105,
            "type" : "VEC2"
        },
        {
            "bufferView" : 3,
            "componentType" : 5123,
            "count" : 77376,
            "type" : "SCALAR"
        },
        {
            "bufferView" : 5,
            "componentType" : 5126,
            "count" : 13105,
            "max" : [
                0.18747824430465698,
                0.18745945394039154,
                0.0002740876516327262
            ],
            "min" : [
                -0.19043123722076416,
                -0.17659471929073334,
                -0.091380774974823
            ],
            "type" : "VEC3"
        },
        {
            "bufferView" : 6,
            "componentType" : 5126,
            "count" : 13105,
            "type" : "VEC3"
        },
        {
            "bufferView" : 7,
            "componentType" : 5126,
            "count" : 13105,
            "type" : "VEC2"
        },
        {
            "bufferView" : 8,
            "componentType" : 5123,
            "count" : 77376,
            "type" : "SCALAR"
        }
    ],
    "bufferViews" : [
        {
            "buffer" : 0,
            "byteLength" : 157260,
            "byteOffset" : 0
        },
        {
            "buffer" : 0,
            "byteLength" : 157260,
            "byteOffset" : 157260
        },
        {
            "buffer" : 0,
            "byteLength" : 104840,
            "byteOffset" : 314520
        },
        {
            "buffer" : 0,
            "byteLength" : 154752,
            "byteOffset" : 419360
        },
        {
            "buffer" : 0,
            "byteLength" : 2683,
            "byteOffset" : 574112
        },
        {
            "buffer" : 0,
            "byteLength" : 157260,
            "byteOffset" : 576796
        },
        {
            "buffer" : 0,
            "byteLength" : 157260,
            "byteOffset" : 734056
        },
        {
            "buffer" : 0,
            "byteLength" : 104840,
            "byteOffset" : 891316
        },
        {
            "buffer" : 0,
            "byteLength" : 154752,
            "byteOffset" : 996156
        },
        {
            "buffer" : 0,
            "byteLength" : 2627,
            "byteOffset" : 1150908
        }
    ],
    "samplers" : [
        {
            "magFilter" : 9729,
            "minFilter" : 9987
        }
    ],
    "buffers" : [
        {
            "byteLength" : 1153536,
            "uri" : "data:application/octet-stream;base64,"
        }
    ]
}
